<svg xmlns="http://www.w3.org/2000/svg" width="800" height="516" viewBox="0 0 800 516" preserveAspectRatio="xMidYMid meet">
  <rect width="800" height="516" fill="#f8f9fa"/>

  <line x1="40" y1="0" x2="40" y2="516" stroke="#e5e7eb" stroke-width="0.5"/>
  <line x1="760" y1="0" x2="760" y2="516" stroke="#e5e7eb" stroke-width="0.5"/>
  <line x1="0" y1="40" x2="800" y2="40" stroke="#e5e7eb" stroke-width="0.5"/>
  <line x1="0" y1="476" x2="800" y2="476" stroke="#e5e7eb" stroke-width="0.5"/>

  <rect x="48" y="72" width="4" height="52" fill="#f59e0b" rx="2"/>

  <text x="64" y="100" font-family="'JetBrains Mono', 'Fira Code', monospace" font-size="36" font-weight="700" fill="#1c1917" letter-spacing="4">ALEXANDER</text>
  <text x="64" y="124" font-family="'JetBrains Mono', 'Fira Code', monospace" font-size="13" font-weight="400" fill="#4b5563" letter-spacing="1">forging software with AI</text>

  <rect x="48" y="148" width="80" height="3" fill="#f59e0b" rx="1.5">
    <animate attributeName="opacity" values="0.5;1;0.5" dur="3s" repeatCount="indefinite"/>
  </rect>
  <rect x="48" y="148" width="80" height="3" fill="#fbbf24" rx="1.5" opacity="0">
    <animate attributeName="opacity" values="0;0.6;0" dur="3s" repeatCount="indefinite"/>
  </rect>

  <text x="48" y="185" font-family="'JetBrains Mono', 'Fira Code', monospace" font-size="12" fill="#4b5563">Turnkey delivery: plugins · bots · APIs · LLM integrations</text>
  <text x="48" y="207" font-family="'JetBrains Mono', 'Fira Code', monospace" font-size="12" fill="#4b5563">Questions first. Code second. 2-3× faster.</text>

  <text x="48" y="245" font-family="'JetBrains Mono', 'Fira Code', monospace" font-size="10" fill="#9ca3af" letter-spacing="0.5">MATERIALS</text>

  <text x="48" y="282" font-family="'JetBrains Mono', 'Fira Code', monospace" font-size="11" fill="#6b7280">Python      </text>
  <rect x="160" y="270" width="120" height="14" fill="#e5e7eb" rx="2"/>
  <rect x="160" y="270" width="120" height="14" fill="#f59e0b" rx="2" opacity="0.85"/>

  <text x="48" y="310" font-family="'JetBrains Mono', 'Fira Code', monospace" font-size="11" fill="#6b7280">HTML        </text>
  <rect x="160" y="298" width="120" height="14" fill="#e5e7eb" rx="2"/>
  <rect x="160" y="298" width="60" height="14" fill="#f59e0b" rx="2" opacity="0.85"/>

  <text x="48" y="338" font-family="'JetBrains Mono', 'Fira Code', monospace" font-size="11" fill="#6b7280">JavaScript  </text>
  <rect x="160" y="326" width="120" height="14" fill="#e5e7eb" rx="2"/>
  <rect x="160" y="326" width="60" height="14" fill="#f59e0b" rx="2" opacity="0.85"/>

  <text x="48" y="366" font-family="'JetBrains Mono', 'Fira Code', monospace" font-size="11" fill="#6b7280">TypeScript  </text>
  <rect x="160" y="354" width="120" height="14" fill="#e5e7eb" rx="2"/>
  <rect x="160" y="354" width="60" height="14" fill="#f59e0b" rx="2" opacity="0.85"/>

  <text x="48" y="394" font-family="'JetBrains Mono', 'Fira Code', monospace" font-size="11" fill="#6b7280">Rust        </text>
  <rect x="160" y="382" width="120" height="14" fill="#e5e7eb" rx="2"/>
  <rect x="160" y="382" width="60" height="14" fill="#f59e0b" rx="2" opacity="0.85"/>

  <text x="48" y="446" font-family="'JetBrains Mono', 'Fira Code', monospace" font-size="11" fill="#9ca3af">▸ 23 contributions   ▸ 6 repos</text>

  <text x="48" y="468" font-family="'JetBrains Mono', 'Fira Code', monospace" font-size="9" fill="#9ca3af" letter-spacing="0.5">auto-generated · updated nightly</text>
</svg>